# xmcd
#
# Track frame offsets:
#  150
#  11941
#  25056
#  39047
#  50540
#  67341
#  78360
#  92255
#  106642
#  116235
#
# Disc length: 1774 seconds
#
# Revision: 0
# Processed by: cddbd v1.5.1PL2 Copyright (c) Steve Scherf et al.
# Submitted via: Collectorz.com_Music_Collector 6.9
#
DISCID=7406ec0a
DTITLE=Cruystal Gayle - We Must Believe In Magic
DYEAR=1993
DGENRE=Country
TTITLE0=01 - Don't It Make My Brown Eyes Blue
TTITLE1=02 - I Wanna Come Back To You
TTITLE2=03 - River Road
TTITLE3=04 - It's All Right With Me
TTITLE4=05 - Going Down Slow
TTITLE5=06 - All I Wanna Do In Life
TTITLE6=07 - Make A Dream Come True
TTITLE7=08 - Green Door
TTITLE8=09 - Funny
TTITLE9=10 - We Must Believe In Magic
EXTD=
EXTT0=
EXTT1=
EXTT2=
EXTT3=
EXTT4=
EXTT5=
EXTT6=
EXTT7=
EXTT8=
EXTT9=
PLAYORDER=
